<svg width="2859" height="720" viewBox="0 0 2859 720" fill="none" xmlns="http://www.w3.org/2000/svg">
<path d="M282.744 719.432C255.437 719.432 228.131 716.36 200.824 710.216C173.517 704.072 147.576 695.88 123 685.64C97.7413 675.4 74.872 663.795 54.392 650.824C33.2293 637.853 15.1387 624.541 0.119995 610.888L24.696 531.016C32.888 540.573 43.128 551.155 55.416 562.76C67.0213 574.365 80.6747 585.288 96.376 595.528C111.395 605.768 127.437 614.643 144.504 622.152C162.253 628.979 180.344 632.392 198.776 632.392C222.669 632.392 245.88 626.248 268.408 613.96C290.936 601.672 306.637 581.192 315.512 552.52C323.704 525.213 324.387 498.589 317.56 472.648C310.733 446.024 301.859 419.059 290.936 391.752C280.696 364.445 271.139 335.773 262.264 305.736C253.389 275.699 251.341 242.931 256.12 207.432C258.851 184.904 266.36 161.693 278.648 137.8C290.936 113.224 308.344 90.696 330.872 70.2159C354.083 49.736 383.096 33.0106 417.912 20.04C452.728 7.06932 494.371 0.583984 542.84 0.583984C564.003 0.583984 585.165 2.29065 606.328 5.70398C627.491 9.11731 647.629 13.896 666.744 20.04C685.859 25.5013 703.608 31.9867 719.992 39.496C736.376 47.0053 750.371 54.5146 761.976 62.024L738.424 133.704C728.184 122.099 713.165 111.517 693.368 101.96C673.571 91.72 651.725 86.6 627.832 86.6C603.939 86.6 580.728 93.0853 558.2 106.056C535.672 118.344 519.971 138.824 511.096 167.496C502.904 194.803 501.88 222.109 508.024 249.416C514.851 276.723 523.384 304.712 533.624 333.384C544.547 361.373 554.445 390.387 563.32 420.424C572.195 449.779 574.584 480.499 570.488 512.584C567.075 535.112 559.224 558.664 546.936 583.24C535.331 607.133 517.923 629.32 494.712 649.8C471.501 670.28 442.488 687.005 407.672 699.976C372.856 712.947 331.213 719.432 282.744 719.432ZM515.68 701L1110.62 19.016H1363.55L1186.4 701H901.728L941.664 547.4H749.152L615.008 701H515.68ZM959.072 482.888L1024.61 232.008L805.472 482.888H959.072ZM1531.74 719.432C1504.44 719.432 1477.13 716.36 1449.82 710.216C1422.52 704.072 1396.58 695.88 1372 685.64C1346.74 675.4 1323.87 663.795 1303.39 650.824C1282.23 637.853 1264.14 624.541 1249.12 610.888L1273.7 531.016C1281.89 540.573 1292.13 551.155 1304.42 562.76C1316.02 574.365 1329.67 585.288 1345.38 595.528C1360.39 605.768 1376.44 614.643 1393.5 622.152C1411.25 628.979 1429.34 632.392 1447.78 632.392C1471.67 632.392 1494.88 626.248 1517.41 613.96C1539.94 601.672 1555.64 581.192 1564.51 552.52C1572.7 525.213 1573.39 498.589 1566.56 472.648C1559.73 446.024 1550.86 419.059 1539.94 391.752C1529.7 364.445 1520.14 335.773 1511.26 305.736C1502.39 275.699 1500.34 242.931 1505.12 207.432C1507.85 184.904 1515.36 161.693 1527.65 137.8C1539.94 113.224 1557.34 90.696 1579.87 70.2159C1603.08 49.736 1632.1 33.0106 1666.91 20.04C1701.73 7.06932 1743.37 0.583984 1791.84 0.583984C1813 0.583984 1834.17 2.29065 1855.33 5.70398C1876.49 9.11731 1896.63 13.896 1915.74 20.04C1934.86 25.5013 1952.61 31.9867 1968.99 39.496C1985.38 47.0053 1999.37 54.5146 2010.98 62.024L1987.42 133.704C1977.18 122.099 1962.17 111.517 1942.37 101.96C1922.57 91.72 1900.73 86.6 1876.83 86.6C1852.94 86.6 1829.73 93.0853 1807.2 106.056C1784.67 118.344 1768.97 138.824 1760.1 167.496C1751.9 194.803 1750.88 222.109 1757.02 249.416C1763.85 276.723 1772.38 304.712 1782.62 333.384C1793.55 361.373 1803.45 390.387 1812.32 420.424C1821.19 449.779 1823.58 480.499 1819.49 512.584C1816.07 535.112 1808.22 558.664 1795.94 583.24C1784.33 607.133 1766.92 629.32 1743.71 649.8C1720.5 670.28 1691.49 687.005 1656.67 699.976C1621.86 712.947 1580.21 719.432 1531.74 719.432ZM2542.28 221.48L2123.24 701H1945.4L2070.68 221.48H2270.12L2184.44 551.24L2471.72 221.48H2542.28ZM2262.37 701L2680.69 221.48H2858.53L2733.97 701H2533.81L2561.89 593H2426.53L2332.21 701H2262.37ZM2574.13 547.64L2620.21 371.24L2466.13 547.64H2574.13Z" fill="#010199"/>
</svg>
