<svg id="Layer_1" data-name="Layer 1" xmlns="http://www.w3.org/2000/svg" viewBox="0 0 228 71.28"><defs><style>.cls-1{fill:#010199;}.cls-2{fill:#fcfcfd;}.cls-3{fill:#fdfdfd;}.cls-4{fill:#fbfbfd;}.cls-5{fill:#05059a;}.cls-6{fill:#06069b;}</style></defs><path class="cls-1" d="M640,476q56.44,0,112.9,0c.9,0,1.1.2,1.1,1.1q0,34.61,0,69.2c0,.82-.16,1-1,1q-113,0-226,0c-.82,0-1-.16-1-1q0-34.66,0-69.32c0-.82.16-1,1-1Q583.5,476,640,476Zm-26.07,59.5c2.72,0,5.43,0,8.15,0,.72,0,1-.15,1.16-.95.24-1.69.63-3.36,1-5q4.27-21.75,8.56-43.49c.19-1,0-1.34-1.12-1.33-4.4,0-8.79,0-13.19,0a2.61,2.61,0,0,0-2.22,1.11q-12.66,15.78-25.39,31.53-6.87,8.52-13.73,17.07c-.22.26-.62.5-.41.9s.58.16.87.17c1.68,0,3.36,0,5,0a1.51,1.51,0,0,0,1.39-.69c2.53-3.29,5.1-6.55,7.64-9.83a1.8,1.8,0,0,1,1.55-.89c4.28,0,8.56,0,12.83,0,.77,0,.94.16.77,1-.66,3.1-1.2,6.24-1.84,9.35-.18.87.08,1.11.95,1.1C608.57,535.5,611.25,535.52,613.93,535.52Zm-37-51.81a24.05,24.05,0,0,0-4.07.24,19.59,19.59,0,0,0-10.55,4.14c-5.27,4.46-6.3,10.18-4.72,16.62,1.4,5.69,3,11.33,4.07,17.1,1,5.29-1.87,8.74-7.17,8.75a16.45,16.45,0,0,1-5.52-.93,21.79,21.79,0,0,1-8.24-5.41c-.66-.67-1-.63-1.29.3s-.51,1.76-.78,2.64c-.88,2.94-.81,3.11,1.78,4.83l.2.13a31.16,31.16,0,0,0,26.21,2.75c8.57-2.74,13.6-10.74,11-20.36-1.53-5.57-2.84-11.21-4.12-16.84-.94-4.12,1.08-7.41,4.84-8.13a12,12,0,0,1,4.06,0,17.41,17.41,0,0,1,6.8,2.82c.7.46,1.11.53,1.22-.5s.33-1.8.52-2.7c.38-1.9.33-2-1.42-2.86A28.9,28.9,0,0,0,576.93,483.71Zm91.4,0a29.81,29.81,0,0,0-9.4,1.2c-7.89,2.47-12,8.65-11.27,16.84a49.08,49.08,0,0,0,1.58,7c1.1,4.54,2.4,9,3.1,13.65s-2,8-6.74,8.14a16.42,16.42,0,0,1-7.12-1.31,22.61,22.61,0,0,1-6.87-4.73c-.31-.29-.58-.78-1.07-.64s-.48.77-.58,1.21a21.41,21.41,0,0,1-.51,2.58c-.8,2.16.14,3.51,1.93,4.52l.1.07c9.46,5.33,19.24,5.9,29,1.26,6.78-3.21,9.87-10.41,8.22-17.58-.84-3.69-1.83-7.35-2.68-11-.66-2.83-1.67-5.59-1.89-8.51-.27-3.6,1.76-6.32,5.11-6.85a12.87,12.87,0,0,1,4.06.07,16.89,16.89,0,0,1,6.57,2.75c.82.54,1.25.53,1.38-.56a14.79,14.79,0,0,1,.54-2.82c.44-1.33-.12-2-1.25-2.53A28.19,28.19,0,0,0,668.33,483.7Zm58.51,52c1.76,0,3.53-.1,5.28,0,1.3.1,1.64-.4,1.87-1.59q3.38-17.74,6.89-35.47c.18-.92,0-1.21-.94-1.2-3.2.05-6.39,0-9.59,0a2.2,2.2,0,0,0-1.91,1q-11.49,14.37-23,28.7c-2,2.52-4,5.05-6.06,7.58-.19.23-.57.44-.39.8s.58.17.88.17c1.08,0,2.16,0,3.24,0a1.61,1.61,0,0,0,1.49-.76c1.81-2.38,3.67-4.74,5.5-7.11a1.44,1.44,0,0,1,1.24-.75c3.16,0,6.32,0,9.48,0,.64,0,.81.14.66.83-.46,2.07-.81,4.15-1.22,6.23-.3,1.55-.3,1.55,1.22,1.55Zm-34.49-38.13c-1.88,0-3.76.06-5.63,0-1,0-1.28.27-1.46,1.21q-3.43,17.93-7,35.83c-.18.93,0,1.2,1,1.19q4.72-.07,9.47,0a2.3,2.3,0,0,0,2-1q9.59-12,19.2-24,5-6.17,9.9-12.34c.19-.24.57-.45.36-.81s-.52-.13-.79-.13c-1.11,0-2.24,0-3.35,0a1.53,1.53,0,0,0-1.41.69c-2.37,3.06-4.79,6.09-7.17,9.15-4.09,5.28-8.15,10.57-12.23,15.85-.19.26-.39.51-.59.76a.42.42,0,0,1-.52.17c-.22-.13-.06-.32,0-.51q.63-3,1.21-6c1.22-6.26,2.42-12.53,3.68-18.78.21-1.07,0-1.42-1.14-1.36C696,497.66,694.19,497.59,692.35,497.59Z" transform="translate(-526 -476)"/><path class="cls-2" d="M613.93,535.52c-2.68,0-5.36,0-8,0-.87,0-1.13-.23-.95-1.1.64-3.11,1.18-6.25,1.84-9.35.17-.8,0-1-.77-1-4.27,0-8.55,0-12.83,0a1.8,1.8,0,0,0-1.55.89c-2.54,3.28-5.11,6.54-7.64,9.83a1.51,1.51,0,0,1-1.39.69c-1.68,0-3.36,0-5,0-.29,0-.69.17-.87-.17s.19-.64.41-.9q6.85-8.54,13.73-17.07,12.7-15.76,25.39-31.53a2.61,2.61,0,0,1,2.22-1.11c4.4,0,8.79,0,13.19,0,1.07,0,1.31.35,1.12,1.33q-4.29,21.75-8.56,43.49c-.33,1.68-.72,3.35-1,5-.11.8-.44.95-1.16.95C619.36,535.5,616.65,535.52,613.93,535.52Zm-2.21-35.86-.23-.11c-5,6.36-9.93,12.73-15,19.3h11.09c.51,0,.5-.35.58-.73.51-2.65,1-5.29,1.57-7.94Q610.71,504.92,611.72,499.66Z" transform="translate(-526 -476)"/><path class="cls-3" d="M576.93,483.71a28.9,28.9,0,0,1,12.78,2.62c1.75.88,1.8,1,1.42,2.86-.19.9-.42,1.79-.52,2.7s-.52,1-1.22.5a17.41,17.41,0,0,0-6.8-2.82,12,12,0,0,0-4.06,0c-3.76.72-5.78,4-4.84,8.13,1.28,5.63,2.59,11.27,4.12,16.84,2.64,9.62-2.39,17.62-11,20.36a31.16,31.16,0,0,1-26.21-2.75l-.2-.13c-2.59-1.72-2.66-1.89-1.78-4.83.27-.88.54-1.76.78-2.64s.63-1,1.29-.3a21.79,21.79,0,0,0,8.24,5.41,16.45,16.45,0,0,0,5.52.93c5.3,0,8.13-3.46,7.17-8.75-1.06-5.77-2.67-11.41-4.07-17.1-1.58-6.44-.55-12.16,4.72-16.62A19.59,19.59,0,0,1,572.86,484,24.05,24.05,0,0,1,576.93,483.71Z" transform="translate(-526 -476)"/><path class="cls-2" d="M668.33,483.7a28.19,28.19,0,0,1,12.23,2.71c1.13.55,1.69,1.2,1.25,2.53a14.79,14.79,0,0,0-.54,2.82c-.13,1.09-.56,1.1-1.38.56a16.89,16.89,0,0,0-6.57-2.75,12.87,12.87,0,0,0-4.06-.07c-3.35.53-5.38,3.25-5.11,6.85.22,2.92,1.23,5.68,1.89,8.51.85,3.69,1.84,7.35,2.68,11,1.65,7.17-1.44,14.37-8.22,17.58-9.78,4.64-19.56,4.07-29-1.26l-.1-.07c-1.79-1-2.73-2.36-1.93-4.52a21.41,21.41,0,0,0,.51-2.58c.1-.44,0-1,.58-1.21s.76.35,1.07.64a22.61,22.61,0,0,0,6.87,4.73,16.42,16.42,0,0,0,7.12,1.31c4.79-.18,7.47-3.38,6.74-8.14s-2-9.11-3.1-13.65a49.08,49.08,0,0,1-1.58-7c-.76-8.19,3.38-14.37,11.27-16.84A29.81,29.81,0,0,1,668.33,483.7Z" transform="translate(-526 -476)"/><path class="cls-4" d="M726.84,535.72h-5.39c-1.52,0-1.52,0-1.22-1.55.41-2.08.76-4.16,1.22-6.23.15-.69,0-.83-.66-.83-3.16,0-6.32,0-9.48,0a1.44,1.44,0,0,0-1.24.75c-1.83,2.37-3.69,4.73-5.5,7.11a1.61,1.61,0,0,1-1.49.76c-1.08-.05-2.16,0-3.24,0-.3,0-.7.18-.88-.17s.2-.57.39-.8c2-2.53,4-5.06,6.06-7.58q11.52-14.34,23-28.7a2.2,2.2,0,0,1,1.91-1c3.2,0,6.39,0,9.59,0,1,0,1.12.28.94,1.2q-3.5,17.73-6.89,35.47c-.23,1.19-.57,1.69-1.87,1.59C730.37,535.62,728.6,535.72,726.84,535.72Zm-13.12-12.57H722c.59,0,.51-.51.59-.88.7-3.59,1.42-7.19,2.09-10.79a5.44,5.44,0,0,0,.21-2.63Z" transform="translate(-526 -476)"/><path class="cls-4" d="M692.35,497.59c1.84,0,3.69.07,5.52,0,1.13-.06,1.35.29,1.14,1.36-1.26,6.25-2.46,12.52-3.68,18.78q-.58,3-1.21,6c0,.19-.2.38,0,.51a.42.42,0,0,0,.52-.17c.2-.25.4-.5.59-.76,4.08-5.28,8.14-10.57,12.23-15.85,2.38-3.06,4.8-6.09,7.17-9.15a1.53,1.53,0,0,1,1.41-.69c1.11.05,2.24,0,3.35,0,.27,0,.62-.14.79.13s-.17.57-.36.81q-4.94,6.18-9.9,12.34-9.6,12-19.2,24a2.3,2.3,0,0,1-2,1q-4.74-.07-9.47,0c-1,0-1.13-.26-1-1.19q3.53-17.91,7-35.83c.18-.94.51-1.25,1.46-1.21C688.59,497.65,690.47,497.59,692.35,497.59Z" transform="translate(-526 -476)"/><path class="cls-5" d="M611.72,499.66q-1,5.25-2,10.52c-.52,2.65-1.06,5.29-1.57,7.94-.08.38-.07.73-.58.73H596.45c5.11-6.57,10.08-12.94,15-19.3Z" transform="translate(-526 -476)"/><path class="cls-6" d="M713.72,523.15l11.12-14.31a5.44,5.44,0,0,1-.21,2.63c-.67,3.6-1.39,7.2-2.09,10.79-.08.37,0,.88-.59.88Z" transform="translate(-526 -476)"/></svg>